Motion_pu04
version=1
nRows=13
nColumns=43
inDegrees=yes
endheader
time	pelvis_tilt	pelvis_list	pelvis_rotation	pelvis_tx	pelvis_ty	pelvis_tz	hip_flexion_r	hip_adduction_r	hip_rotation_r	knee_angle_r	ankle_angle_r	subtalar_angle_r	mtp_angle_r	hip_flexion_l	hip_adduction_l	hip_rotation_l	knee_angle_l	ankle_angle_l	subtalar_angle_l	mtp_angle_l	lumbar_extension	lumbar_bending	lumbar_rotation	neck_flexion	neck_lateral_bending	neck_rotation	arm_flex_r	arm_add_r	arm_rot_r	elbow_flex_r	pro_sup_r	wrist_flex_r	wrist_dev_r	hand_finger_flex_r	arm_flex_l	arm_add_l	arm_rot_l	elbow_flex_l	pro_sup_l	wrist_flex_l	wrist_dev_l	hand_finger_flex_l
      0.00250000	      0.96382698	     15.28202480	    -90.43738552	      0.00875166	      0.92004369	      1.14832392	     16.61009408	     -5.67583544	     -4.86875178	    -13.93328414	     17.75382782	     -1.95704095	     -8.32494464	     12.21552263	      1.64069634	     -9.67897029	     -8.79977721	     18.92197315	     -6.62602645	    -11.23359689	     26.17315899	     -0.02047977	    -15.18288140	      6.42774023	      4.94172909	     20.73889111	   -229.39940616	    -30.54678699	   -333.66849765	     66.05386682	    117.84686762	      2.84193002	     -6.18067583	     34.83493438	    180.08892003	    -53.96631225	     84.21998477	     79.71582849	    105.73181277	      4.68242801	     21.34521439	     56.92518998
      0.00500000	      0.97058249	     15.27669756	    -90.43856508	      0.00855990	      0.91995508	      1.14882817	     16.57995320	     -5.65908598	     -4.87019696	    -13.96500567	     17.74674916	     -1.95327748	     -8.32701307	     12.20176877	      1.62566091	     -9.68268878	     -8.82404099	     18.91776285	     -6.62732424	    -11.23630959	     26.21665995	     -0.06403940	    -15.18006534	      6.42119543	      4.94101646	     20.73919380	   -229.37006622	    -30.54209290	   -333.63101074	     66.02357784	    117.84442857	      2.85973524	     -6.17916337	     34.83935679	    180.10887912	    -53.91979642	     84.22236963	     79.73753539	    105.73390404	      4.68565608	     21.34131428	     56.92933093
      0.00750000	      1.00998341	     15.28449173	    -90.44555196	      0.00878734	      0.91977210	      1.14894407	     16.69407736	     -5.74408126	     -4.98163663	    -14.16159620	     17.80249585	     -1.87780551	     -8.37903384	     12.36069893	      1.67488004	     -9.64518374	     -9.14702971	     19.04370897	     -6.64277523	    -11.32731229	     26.15198313	     -0.09676097	    -15.03737502	      6.43741302	      4.99219094	     20.67953187	   -228.79241555	    -30.82336093	   -332.87005902	     65.69806002	    117.20764595	      3.92254516	     -6.30158523	     35.19428151	    180.44339826	    -53.75023021	     84.69977333	     79.77525953	    105.90522074	      4.95905315	     21.36849272	     57.11506444
      0.01000000	      1.01174064	     15.27876390	    -90.43955595	      0.00865113	      0.91975107	      1.14944978	     16.66401839	     -5.73254724	     -4.97716914	    -14.19405819	     17.79993451	     -1.87445895	     -8.37989989	     12.34611079	      1.66303382	     -9.64799962	     -9.17337501	     19.04356683	     -6.64555856	    -11.32902570	     26.19646557	     -0.12713045	    -15.04429316	      6.43353590	      4.99103228	     20.67758595	   -228.77475147	    -30.81540765	   -332.85045296	     65.67498279	    117.20076016	      3.94226545	     -6.30027867	     35.20086977	    180.45615537	    -53.72591508	     84.70286052	     79.78047022	    105.90731750	      4.96275297	     21.36845145	     57.11733131
      0.01250000	      0.97672466	     15.28714041	    -90.37002889	      0.00880303	      0.91947491	      1.14963680	     16.78411693	     -5.73587749	     -5.01036892	    -14.49136030	     18.03966358	     -1.78375626	     -8.40196933	     12.57719466	      1.61659720	     -9.47510741	     -9.68188483	     19.35961634	     -6.71654805	    -11.41848418	     26.15925565	     -0.11365730	    -15.03816373	      6.41336441	      4.93249791	     20.52149712	   -228.28222763	    -30.95817624	   -332.31861538	     65.30916268	    116.21739467	      5.63009346	     -6.40976612	     35.82523471	    180.89209016	    -53.58643002	     85.31623638	     79.79662307	    106.06812312	      5.43632474	     21.48087996	     57.32254175
      0.01500000	      0.97198510	     15.27231993	    -90.36960052	      0.00879948	      0.91946120	      1.14991065	     16.78224551	     -5.73652572	     -5.00976817	    -14.49518774	     18.03924409	     -1.78335069	     -8.40208593	     12.57963109	      1.61753083	     -9.47530341	     -9.68415385	     19.35947176	     -6.71673758	    -11.41876239	     26.17207032	     -0.11665924	    -15.03841701	      6.41287836	      4.93224447	     20.52126357	   -228.27747452	    -30.95739601	   -332.31838563	     65.30718112	    116.21622691	      5.63280778	     -6.40942019	     35.82623161	    180.89543461	    -53.58178593	     85.31578517	     79.79734938	    106.06832181	      5.43702410	     21.48095118	     57.32280830
      0.01750000	      0.93703296	     15.29985497	    -90.29954196	      0.00895326	      0.91916652	      1.15021061	     16.89519421	     -5.73863390	     -5.06086725	    -14.82128188	     18.28868711	     -1.66969738	     -8.41712781	     12.82080667	      1.56895761	     -9.29027632	    -10.21578019	     19.66969059	     -6.81485753	    -11.51902881	     26.16887567	     -0.10719677	    -15.05795879	      6.39532936	      4.85297187	     20.35813170	   -227.88712094	    -31.04210870	   -332.05887999	     65.04095532	    115.26000366	      7.59027072	     -6.37090408	     36.54439736	    181.38915371	    -53.41003423	     85.95176021	     79.80167200	    106.16488639	      6.16646776	     21.64759390	     57.56086471
      0.02000000	      0.93266405	     15.28198052	    -90.30049863	      0.00897385	      0.91914600	      1.15046948	     16.89545701	     -5.73835404	     -5.06047915	    -14.82355755	     18.28841489	     -1.66938910	     -8.41720203	     12.82341638	      1.56891121	     -9.29034168	    -10.21730064	     19.66947179	     -6.81500132	    -11.51923413	     26.18210888	     -0.11187521	    -15.05844040	      6.39494787	      4.85278938	     20.35804623	   -227.88097572	    -31.04194436	   -332.06049861	     65.04058815	    115.25920659	      7.59197654	     -6.37055819	     36.54500722	    181.39140890	    -53.40796873	     85.95176009	     79.80151462	    106.16500101	      6.16730396	     21.64780274	     57.56106242
      0.02250000	      0.90132885	     15.29828446	    -90.23558166	      0.00900223	      0.91884887	      1.15083199	     17.00531014	     -5.73097808	     -5.08064657	    -15.17978443	     18.58992082	     -1.55237777	     -8.43081157	     13.06301560	      1.50903132	     -9.12075554	    -10.79801456	     19.97088865	     -6.93586075	    -11.62764588	     26.17870949	     -0.11662715	    -15.09421445	      6.35175166	      4.78815523	     20.19762855	   -227.56629209	    -31.10438473	   -331.98025091	     64.86096601	    114.42275921	      9.79409331	     -6.15234826	     37.28373586	    181.91536799	    -53.19947250	     86.61740948	     79.76212107	    106.18874544	      7.17925662	     21.86346095	     57.84451186
      0.02500000	      0.89637980	     15.28883352	    -90.21992082	      0.00904085	      0.91877998	      1.15131634	     16.97241166	     -5.72956809	     -5.07865769	    -15.21506882	     18.58688711	     -1.55002541	     -8.43174711	     13.05517191	      1.50790357	     -9.12234498	    -10.82756144	     19.96711354	     -6.93719686	    -11.63007295	     26.22051353	     -0.12274132	    -15.08284340	      6.34483734	      4.78633083	     20.19760137	   -227.52211141	    -31.10592048	   -332.00114020	     64.85192186	    114.41684958	      9.81325931	     -6.14620013	     37.28917667	    181.91295688	    -53.18468897	     86.63799988	     79.75577107	    106.18902304	      7.19419938	     21.86650415	     57.84709451
      0.02750000	      0.86482490	     15.30580793	    -90.16715039	      0.00906781	      0.91852033	      1.15139157	     17.12077719	     -5.72262522	     -5.07846942	    -15.53367913	     18.89779533	     -1.45798798	     -8.45688304	     13.32883056	      1.45505304	     -8.99125238	    -11.37925865	     20.25710770	     -7.04458431	    -11.74045845	     26.18238884	     -0.13362332	    -15.12199104	      6.31980815	      4.76609452	     20.04771870	   -227.25308563	    -31.18848237	   -332.02401076	     64.75313156	    113.74812532	     12.08915115	     -5.79539334	     37.94150795	    182.46956134	    -52.94544298	     87.34961961	     79.68737151	    106.12273453	      8.39184198	     22.11390110	     58.16428122
      0.03000000	      0.86135083	     15.29665311	    -90.15454477	      0.00909758	      0.91845048	      1.15188148	     17.09017581	     -5.72155734	     -5.07810180	    -15.56839860	     18.89432400	     -1.45644430	     -8.45809155	     13.31568888	      1.44833850	     -8.99153265	    -11.41323019	     20.25194490	     -7.04506416	    -11.74303416	     26.22510863	     -0.14162632	    -15.10590527	      6.31337526	      4.76431990	     20.04845296	   -227.20424477	    -31.18434448	   -332.04809198	     64.74419757	    113.74438111	     12.10700425	     -5.78832963	     37.94476177	    182.46061888	    -52.92633828	     87.37708691	     79.67907330	    106.12191342	      8.40883923	     22.11727525	     58.16689517
      0.03250000	      0.83529504	     15.30820470	    -90.11320941	      0.00908942	      0.91820569	      1.15196542	     17.23553034	     -5.71386093	     -5.06025821	    -15.89444884	     19.17429293	     -1.39369809	     -8.50151631	     13.58852496	      1.39736214	     -8.90243484	    -11.96481593	     20.51939724	     -7.10863292	    -11.85571768	     26.17626633	     -0.16745791	    -15.15071984	      6.30435826	      4.80452753	     19.92660835	   -226.97268678	    -31.27402070	   -332.09792018	     64.66842739	    113.26909312	     14.25485786	     -5.39169687	     38.43438726	    183.07387140	    -52.61954054	     88.18879612	     79.54455898	    105.93727339	      9.68788075	     22.38084792	     58.51857700
